<svg width="278" height="64" viewBox="0 0 278 64" fill="none" xmlns="http://www.w3.org/2000/svg">
<path d="M20.3268 16.1401H9.8268L7.7568 21.0001H3.7368L13.1868 5.96046e-05H17.0268L26.5068 21.0001H22.4268L20.3268 16.1401ZM19.0368 13.0801L15.0768 3.90006L11.1468 13.0801H19.0368ZM35.9671 14.5801H33.0571V21.0001H29.3071V4.98006H33.0571V11.4601H36.0571L40.7971 4.98006H44.8171L38.9971 12.6901L45.2071 21.0001H40.7971L35.9671 14.5801ZM54.6147 21.2101C52.9547 21.2101 51.4647 20.8601 50.1447 20.1601C48.8247 19.4601 47.7947 18.4901 47.0547 17.2501C46.3147 15.9901 45.9447 14.5701 45.9447 12.9901C45.9447 11.4101 46.3147 10.0001 47.0547 8.76006C47.7947 7.52006 48.8147 6.55006 50.1147 5.85006C51.4347 5.15006 52.9347 4.80006 54.6147 4.80006C56.1947 4.80006 57.5747 5.12006 58.7547 5.76006C59.9547 6.40006 60.8547 7.32006 61.4547 8.52006L58.5747 10.2001C58.1147 9.46006 57.5347 8.91006 56.8347 8.55006C56.1547 8.17006 55.4047 7.98006 54.5847 7.98006C53.1847 7.98006 52.0247 8.44006 51.1047 9.36006C50.1847 10.2601 49.7247 11.4701 49.7247 12.9901C49.7247 14.5101 50.1747 15.7301 51.0747 16.6501C51.9947 17.5501 53.1647 18.0001 54.5847 18.0001C55.4047 18.0001 56.1547 17.8201 56.8347 17.4601C57.5347 17.0801 58.1147 16.5201 58.5747 15.7801L61.4547 17.4601C60.8347 18.6601 59.9247 19.5901 58.7247 20.2501C57.5447 20.8901 56.1747 21.2101 54.6147 21.2101ZM79.522 13.0801C79.522 13.3401 79.502 13.7101 79.462 14.1901H66.892C67.112 15.3701 67.682 16.3101 68.602 17.0101C69.542 17.6901 70.702 18.0301 72.082 18.0301C73.842 18.0301 75.292 17.4501 76.432 16.2901L78.442 18.6001C77.722 19.4601 76.812 20.1101 75.712 20.5501C74.612 20.9901 73.372 21.2101 71.992 21.2101C70.232 21.2101 68.682 20.8601 67.342 20.1601C66.002 19.4601 64.962 18.4901 64.222 17.2501C63.502 15.9901 63.142 14.5701 63.142 12.9901C63.142 11.4301 63.492 10.0301 64.192 8.79006C64.912 7.53006 65.902 6.55006 67.162 5.85006C68.422 5.15006 69.842 4.80006 71.422 4.80006C72.982 4.80006 74.372 5.15006 75.592 5.85006C76.832 6.53006 77.792 7.50006 78.472 8.76006C79.172 10.0001 79.522 11.4401 79.522 13.0801ZM71.422 7.80006C70.222 7.80006 69.202 8.16006 68.362 8.88006C67.542 9.58006 67.042 10.5201 66.862 11.7001H75.952C75.792 10.5401 75.302 9.60006 74.482 8.88006C73.662 8.16006 72.642 7.80006 71.422 7.80006ZM90.9135 21.2101C89.2535 21.2101 87.7635 20.8601 86.4435 20.1601C85.1235 19.4601 84.0935 18.4901 83.3535 17.2501C82.6135 15.9901 82.2435 14.5701 82.2435 12.9901C82.2435 11.4101 82.6135 10.0001 83.3535 8.76006C84.0935 7.52006 85.1135 6.55006 86.4135 5.85006C87.7335 5.15006 89.2335 4.80006 90.9135 4.80006C92.4935 4.80006 93.8735 5.12006 95.0535 5.76006C96.2535 6.40006 97.1535 7.32006 97.7535 8.52006L94.8735 10.2001C94.4135 9.46006 93.8335 8.91006 93.1335 8.55006C92.4535 8.17006 91.7035 7.98006 90.8835 7.98006C89.4835 7.98006 88.3235 8.44006 87.4035 9.36006C86.4835 10.2601 86.0235 11.4701 86.0235 12.9901C86.0235 14.5101 86.4735 15.7301 87.3735 16.6501C88.2935 17.5501 89.4635 18.0001 90.8835 18.0001C91.7035 18.0001 92.4535 17.8201 93.1335 17.4601C93.8335 17.0801 94.4135 16.5201 94.8735 15.7801L97.7535 17.4601C97.1335 18.6601 96.2235 19.5901 95.0235 20.2501C93.8435 20.8901 92.4735 21.2101 90.9135 21.2101ZM108.111 21.2101C106.451 21.2101 104.961 20.8601 103.641 20.1601C102.321 19.4601 101.291 18.4901 100.551 17.2501C99.8108 15.9901 99.4408 14.5701 99.4408 12.9901C99.4408 11.4101 99.8108 10.0001 100.551 8.76006C101.291 7.52006 102.311 6.55006 103.611 5.85006C104.931 5.15006 106.431 4.80006 108.111 4.80006C109.691 4.80006 111.071 5.12006 112.251 5.76006C113.451 6.40006 114.351 7.32006 114.951 8.52006L112.071 10.2001C111.611 9.46006 111.031 8.91006 110.331 8.55006C109.651 8.17006 108.901 7.98006 108.081 7.98006C106.681 7.98006 105.521 8.44006 104.601 9.36006C103.681 10.2601 103.221 11.4701 103.221 12.9901C103.221 14.5101 103.671 15.7301 104.571 16.6501C105.491 17.5501 106.661 18.0001 108.081 18.0001C108.901 18.0001 109.651 17.8201 110.331 17.4601C111.031 17.0801 111.611 16.5201 112.071 15.7801L114.951 17.4601C114.331 18.6601 113.421 19.5901 112.221 20.2501C111.041 20.8901 109.671 21.2101 108.111 21.2101ZM133.167 4.98006L125.667 22.2901C124.967 24.0301 124.117 25.2501 123.117 25.9501C122.117 26.6701 120.907 27.0301 119.487 27.0301C118.687 27.0301 117.897 26.9001 117.117 26.6401C116.337 26.3801 115.697 26.0201 115.197 25.5601L116.697 22.8001C117.057 23.1401 117.477 23.4101 117.957 23.6101C118.457 23.8101 118.957 23.9101 119.457 23.9101C120.117 23.9101 120.657 23.7401 121.077 23.4001C121.517 23.0601 121.917 22.4901 122.277 21.6901L122.547 21.0601L115.557 4.98006H119.457L124.497 16.8301L129.567 4.98006H133.167ZM141.244 4.80006C143.604 4.80006 145.404 5.37006 146.644 6.51006C147.904 7.63006 148.534 9.33006 148.534 11.6101V21.0001H144.994V19.0501C144.534 19.7501 143.874 20.2901 143.014 20.6701C142.174 21.0301 141.154 21.2101 139.954 21.2101C138.754 21.2101 137.704 21.0101 136.804 20.6101C135.904 20.1901 135.204 19.6201 134.704 18.9001C134.224 18.1601 133.984 17.3301 133.984 16.4101C133.984 14.9701 134.514 13.8201 135.574 12.9601C136.654 12.0801 138.344 11.6401 140.644 11.6401H144.784V11.4001C144.784 10.2801 144.444 9.42006 143.764 8.82006C143.104 8.22006 142.114 7.92006 140.794 7.92006C139.894 7.92006 139.004 8.06006 138.124 8.34006C137.264 8.62006 136.534 9.01006 135.934 9.51006L134.464 6.78006C135.304 6.14006 136.314 5.65006 137.494 5.31006C138.674 4.97006 139.924 4.80006 141.244 4.80006ZM140.734 18.4801C141.674 18.4801 142.504 18.2701 143.224 17.8501C143.964 17.4101 144.484 16.7901 144.784 15.9901V14.1301H140.914C138.754 14.1301 137.674 14.8401 137.674 16.2601C137.674 16.9401 137.944 17.4801 138.484 17.8801C139.024 18.2801 139.774 18.4801 140.734 18.4801ZM162.054 4.80006C163.614 4.80006 165.004 5.14006 166.224 5.82006C167.464 6.50006 168.434 7.46006 169.134 8.70006C169.834 9.94006 170.184 11.3701 170.184 12.9901C170.184 14.6101 169.834 16.0501 169.134 17.3101C168.434 18.5501 167.464 19.5101 166.224 20.1901C165.004 20.8701 163.614 21.2101 162.054 21.2101C159.894 21.2101 158.184 20.4901 156.924 19.0501V26.8201H153.174V4.98006H156.744V7.08006C157.364 6.32006 158.124 5.75006 159.024 5.37006C159.944 4.99006 160.954 4.80006 162.054 4.80006ZM161.634 18.0001C163.014 18.0001 164.144 17.5401 165.024 16.6201C165.924 15.7001 166.374 14.4901 166.374 12.9901C166.374 11.4901 165.924 10.2801 165.024 9.36006C164.144 8.44006 163.014 7.98006 161.634 7.98006C160.734 7.98006 159.924 8.19006 159.204 8.61006C158.484 9.01006 157.914 9.59006 157.494 10.3501C157.074 11.1101 156.864 11.9901 156.864 12.9901C156.864 13.9901 157.074 14.8701 157.494 15.6301C157.914 16.3901 158.484 16.9801 159.204 17.4001C159.924 17.8001 160.734 18.0001 161.634 18.0001ZM181.716 10.2601C183.756 10.2601 185.316 10.7201 186.396 11.6401C187.476 12.5601 188.016 13.8601 188.016 15.5401C188.016 17.3001 187.416 18.6601 186.216 19.6201C185.036 20.5801 183.356 21.0501 181.176 21.0301L173.916 21.0001V4.98006H177.666V10.2301L181.716 10.2601ZM190.086 4.98006H193.836V21.0001H190.086V4.98006ZM180.846 18.2701C181.946 18.2901 182.786 18.0601 183.366 17.5801C183.946 17.1001 184.236 16.4001 184.236 15.4801C184.236 14.5801 183.956 13.9201 183.396 13.5001C182.836 13.0801 181.986 12.8601 180.846 12.8401L177.666 12.8101V18.2401L180.846 18.2701ZM224.268 17.8201V24.5701H220.758V21.0001H208.398V24.5701H204.918V17.8201H205.668C206.688 17.7801 207.378 17.1301 207.738 15.8701C208.118 14.5901 208.368 12.7901 208.488 10.4701L208.698 4.98006H221.898V17.8201H224.268ZM211.908 10.7401C211.828 12.5801 211.678 14.0801 211.458 15.2401C211.238 16.4001 210.838 17.2601 210.258 17.8201H218.148V8.16006H211.998L211.908 10.7401ZM242.138 4.98006V21.0001H238.388V8.16006H232.388L232.238 11.3401C232.138 13.4601 231.938 15.2401 231.638 16.6801C231.358 18.1001 230.868 19.2301 230.168 20.0701C229.488 20.8901 228.548 21.3001 227.348 21.3001C226.788 21.3001 226.098 21.1901 225.278 20.9701L225.458 17.8201C225.738 17.8801 225.978 17.9101 226.178 17.9101C226.938 17.9101 227.508 17.6101 227.888 17.0101C228.268 16.3901 228.508 15.6601 228.608 14.8201C228.728 13.9601 228.828 12.7401 228.908 11.1601L229.178 4.98006H242.138ZM260.718 4.98006V21.0001H257.358V16.1701H253.128L249.858 21.0001H245.838L249.618 15.6601C248.458 15.2601 247.568 14.6501 246.948 13.8301C246.348 12.9901 246.048 11.9601 246.048 10.7401C246.048 8.90006 246.698 7.48006 247.998 6.48006C249.298 5.48006 251.088 4.98006 253.368 4.98006H260.718ZM253.488 8.13006C251.068 8.13006 249.858 9.04006 249.858 10.8601C249.858 12.6601 251.028 13.5601 253.368 13.5601H257.358V8.13006H253.488ZM0.16375 37.0001H4.06375V58.0001H0.16375V37.0001ZM18.2638 41.8001C19.8238 41.8001 21.2138 42.1401 22.4338 42.8201C23.6738 43.5001 24.6438 44.4601 25.3438 45.7001C26.0438 46.9401 26.3938 48.3701 26.3938 49.9901C26.3938 51.6101 26.0438 53.0501 25.3438 54.3101C24.6438 55.5501 23.6738 56.5101 22.4338 57.1901C21.2138 57.8701 19.8238 58.2101 18.2638 58.2101C16.1038 58.2101 14.3938 57.4901 13.1338 56.0501V63.8201H9.38383V41.9801H12.9538V44.0801C13.5738 43.3201 14.3338 42.7501 15.2338 42.3701C16.1538 41.9901 17.1638 41.8001 18.2638 41.8001ZM17.8438 55.0001C19.2238 55.0001 20.3538 54.5401 21.2338 53.6201C22.1338 52.7001 22.5838 51.4901 22.5838 49.9901C22.5838 48.4901 22.1338 47.2801 21.2338 46.3601C20.3538 45.4401 19.2238 44.9801 17.8438 44.9801C16.9438 44.9801 16.1338 45.1901 15.4138 45.6101C14.6938 46.0101 14.1238 46.5901 13.7038 47.3501C13.2838 48.1101 13.0738 48.9901 13.0738 49.9901C13.0738 50.9901 13.2838 51.8701 13.7038 52.6301C14.1238 53.3901 14.6938 53.9801 15.4138 54.4001C16.1338 54.8001 16.9438 55.0001 17.8438 55.0001ZM39.0402 41.8001C41.0602 41.8001 42.6802 42.3901 43.9002 43.5701C45.1202 44.7501 45.7302 46.5001 45.7302 48.8201V58.0001H41.9802V49.3001C41.9802 47.9001 41.6502 46.8501 40.9902 46.1501C40.3302 45.4301 39.3902 45.0701 38.1702 45.0701C36.7902 45.0701 35.7002 45.4901 34.9002 46.3301C34.1002 47.1501 33.7002 48.3401 33.7002 49.9001V58.0001H29.9502V35.7401H33.7002V43.8401C34.3202 43.1801 35.0802 42.6801 35.9802 42.3401C36.9002 41.9801 37.9202 41.8001 39.0402 41.8001ZM57.8338 58.2101C56.2138 58.2101 54.7538 57.8601 53.4538 57.1601C52.1538 56.4601 51.1338 55.4901 50.3938 54.2501C49.6738 52.9901 49.3138 51.5701 49.3138 49.9901C49.3138 48.4101 49.6738 47.0001 50.3938 45.7601C51.1338 44.5201 52.1538 43.5501 53.4538 42.8501C54.7538 42.1501 56.2138 41.8001 57.8338 41.8001C59.4738 41.8001 60.9438 42.1501 62.2438 42.8501C63.5438 43.5501 64.5538 44.5201 65.2738 45.7601C66.0138 47.0001 66.3838 48.4101 66.3838 49.9901C66.3838 51.5701 66.0138 52.9901 65.2738 54.2501C64.5538 55.4901 63.5438 56.4601 62.2438 57.1601C60.9438 57.8601 59.4738 58.2101 57.8338 58.2101ZM57.8338 55.0001C59.2138 55.0001 60.3538 54.5401 61.2538 53.6201C62.1538 52.7001 62.6038 51.4901 62.6038 49.9901C62.6038 48.4901 62.1538 47.2801 61.2538 46.3601C60.3538 45.4401 59.2138 44.9801 57.8338 44.9801C56.4538 44.9801 55.3138 45.4401 54.4138 46.3601C53.5338 47.2801 53.0938 48.4901 53.0938 49.9901C53.0938 51.4901 53.5338 52.7001 54.4138 53.6201C55.3138 54.5401 56.4538 55.0001 57.8338 55.0001ZM79.0598 41.8001C81.0798 41.8001 82.6998 42.3901 83.9198 43.5701C85.1398 44.7501 85.7498 46.5001 85.7498 48.8201V58.0001H81.9998V49.3001C81.9998 47.9001 81.6698 46.8501 81.0098 46.1501C80.3498 45.4301 79.4098 45.0701 78.1898 45.0701C76.8098 45.0701 75.7198 45.4901 74.9198 46.3301C74.1198 47.1501 73.7198 48.3401 73.7198 49.9001V58.0001H69.9698V41.9801H73.5398V44.0501C74.1598 43.3101 74.9398 42.7501 75.8798 42.3701C76.8198 41.9901 77.8798 41.8001 79.0598 41.8001ZM105.713 50.0801C105.713 50.3401 105.693 50.7101 105.653 51.1901H93.0834C93.3034 52.3701 93.8734 53.3101 94.7934 54.0101C95.7334 54.6901 96.8934 55.0301 98.2734 55.0301C100.033 55.0301 101.483 54.4501 102.623 53.2901L104.633 55.6001C103.913 56.4601 103.003 57.1101 101.903 57.5501C100.803 57.9901 99.5634 58.2101 98.1834 58.2101C96.4234 58.2101 94.8734 57.8601 93.5334 57.1601C92.1934 56.4601 91.1534 55.4901 90.4134 54.2501C89.6934 52.9901 89.3334 51.5701 89.3334 49.9901C89.3334 48.4301 89.6834 47.0301 90.3834 45.7901C91.1034 44.5301 92.0934 43.5501 93.3534 42.8501C94.6134 42.1501 96.0334 41.8001 97.6134 41.8001C99.1734 41.8001 100.563 42.1501 101.783 42.8501C103.023 43.5301 103.983 44.5001 104.663 45.7601C105.363 47.0001 105.713 48.4401 105.713 50.0801ZM97.6134 44.8001C96.4134 44.8001 95.3934 45.1601 94.5534 45.8801C93.7334 46.5801 93.2334 47.5201 93.0534 48.7001H102.143C101.983 47.5401 101.493 46.6001 100.673 45.8801C99.8534 45.1601 98.8334 44.8001 97.6134 44.8001ZM123.726 37.0001V58.0001H119.826V40.2701H115.386V37.0001H123.726ZM136.832 45.6701C138.772 45.9101 140.252 46.5701 141.272 47.6501C142.292 48.7301 142.802 50.0801 142.802 51.7001C142.802 52.9201 142.492 54.0301 141.872 55.0301C141.252 56.0301 140.312 56.8301 139.052 57.4301C137.812 58.0101 136.292 58.3001 134.492 58.3001C132.992 58.3001 131.542 58.0901 130.142 57.6701C128.762 57.2301 127.582 56.6301 126.602 55.8701L128.282 52.8401C129.042 53.4801 129.962 53.9901 131.042 54.3701C132.142 54.7301 133.272 54.9101 134.432 54.9101C135.812 54.9101 136.892 54.6301 137.672 54.0701C138.472 53.4901 138.872 52.7101 138.872 51.7301C138.872 50.7501 138.492 49.9901 137.732 49.4501C136.992 48.8901 135.852 48.6101 134.312 48.6101H132.392V45.9401L137.162 40.2701H127.622V37.0001H141.932V39.6101L136.832 45.6701ZM163.784 37.0001C165.604 37.0001 167.184 37.3001 168.524 37.9001C169.884 38.5001 170.924 39.3601 171.644 40.4801C172.364 41.6001 172.724 42.9301 172.724 44.4701C172.724 45.9901 172.364 47.3201 171.644 48.4601C170.924 49.5801 169.884 50.4401 168.524 51.0401C167.184 51.6401 165.604 51.9401 163.784 51.9401H159.044V58.0001H155.144V37.0001H163.784ZM163.604 48.6401C165.304 48.6401 166.594 48.2801 167.474 47.5601C168.354 46.8401 168.794 45.8101 168.794 44.4701C168.794 43.1301 168.354 42.1001 167.474 41.3801C166.594 40.6601 165.304 40.3001 163.604 40.3001H159.044V48.6401H163.604ZM179.682 44.3201C180.762 42.6401 182.662 41.8001 185.382 41.8001V45.3701C185.062 45.3101 184.772 45.2801 184.512 45.2801C183.052 45.2801 181.912 45.7101 181.092 46.5701C180.272 47.4101 179.862 48.6301 179.862 50.2301V58.0001H176.112V41.9801H179.682V44.3201ZM195.617 58.2101C193.997 58.2101 192.537 57.8601 191.237 57.1601C189.937 56.4601 188.917 55.4901 188.177 54.2501C187.457 52.9901 187.097 51.5701 187.097 49.9901C187.097 48.4101 187.457 47.0001 188.177 45.7601C188.917 44.5201 189.937 43.5501 191.237 42.8501C192.537 42.1501 193.997 41.8001 195.617 41.8001C197.257 41.8001 198.727 42.1501 200.027 42.8501C201.327 43.5501 202.337 44.5201 203.057 45.7601C203.797 47.0001 204.167 48.4101 204.167 49.9901C204.167 51.5701 203.797 52.9901 203.057 54.2501C202.337 55.4901 201.327 56.4601 200.027 57.1601C198.727 57.8601 197.257 58.2101 195.617 58.2101ZM195.617 55.0001C196.997 55.0001 198.137 54.5401 199.037 53.6201C199.937 52.7001 200.387 51.4901 200.387 49.9901C200.387 48.4901 199.937 47.2801 199.037 46.3601C198.137 45.4401 196.997 44.9801 195.617 44.9801C194.237 44.9801 193.097 45.4401 192.197 46.3601C191.317 47.2801 190.877 48.4901 190.877 49.9901C190.877 51.4901 191.317 52.7001 192.197 53.6201C193.097 54.5401 194.237 55.0001 195.617 55.0001ZM235.694 58.0001L235.664 44.0801L228.764 55.6001H227.024L220.124 44.2601V58.0001H216.404V37.0001H219.614L227.954 50.9201L236.144 37.0001H239.354L239.384 58.0001H235.694ZM250.816 41.8001C253.176 41.8001 254.976 42.3701 256.216 43.5101C257.476 44.6301 258.106 46.3301 258.106 48.6101V58.0001H254.566V56.0501C254.106 56.7501 253.446 57.2901 252.586 57.6701C251.746 58.0301 250.726 58.2101 249.526 58.2101C248.326 58.2101 247.276 58.0101 246.376 57.6101C245.476 57.1901 244.776 56.6201 244.276 55.9001C243.796 55.1601 243.556 54.3301 243.556 53.4101C243.556 51.9701 244.086 50.8201 245.146 49.9601C246.226 49.0801 247.916 48.6401 250.216 48.6401H254.356V48.4001C254.356 47.2801 254.016 46.4201 253.336 45.8201C252.676 45.2201 251.686 44.9201 250.366 44.9201C249.466 44.9201 248.576 45.0601 247.696 45.3401C246.836 45.6201 246.106 46.0101 245.506 46.5101L244.036 43.7801C244.876 43.1401 245.886 42.6501 247.066 42.3101C248.246 41.9701 249.496 41.8001 250.816 41.8001ZM250.306 55.4801C251.246 55.4801 252.076 55.2701 252.796 54.8501C253.536 54.4101 254.056 53.7901 254.356 52.9901V51.1301H250.486C248.326 51.1301 247.246 51.8401 247.246 53.2601C247.246 53.9401 247.516 54.4801 248.056 54.8801C248.596 55.2801 249.346 55.4801 250.306 55.4801ZM273.119 58.0001L269.009 52.4501L264.869 58.0001H260.729L266.969 49.8701L260.999 41.9801H265.169L269.099 47.2301L273.029 41.9801H277.079L271.079 49.8101L277.349 58.0001H273.119Z" fill="white"/>
</svg>
